<?xml version="1.0" standalone="no"?><!DOCTYPE svg PUBLIC "-//W3C//DTD SVG 1.1//EN" "http://www.w3.org/Graphics/SVG/1.1/DTD/svg11.dtd"><svg t="1718946508156" class="icon" viewBox="0 0 1024 1024" version="1.1" xmlns="http://www.w3.org/2000/svg" p-id="1454" xmlns:xlink="http://www.w3.org/1999/xlink" width="200" height="200"><path d="M550.693254 918.875754c-14.033621-0.735757-27.689642-1.928932-40.576137-3.539616-11.151991-1.650593-21.252023 6.503111-22.630417 17.680684-1.38658 11.177574 6.507204 21.340027 17.61724 22.731724 13.83817 1.730411 28.456099 3.022847 43.449581 3.818979 0.366344 0.019443 0.722454 0.019443 1.087774 0.019443 10.708899 0 19.660782-8.433066 20.234857-19.291368C570.471716 929.038208 561.886177 919.451876 550.693254 918.875754zM327.660598 186.531324c-78.418001 0-141.980665 63.801095-141.980665 142.519947 0 78.717829 63.562665 142.538367 141.980665 142.538367s141.980665-63.821561 141.980665-142.538367C469.641263 250.332419 406.078599 186.531324 327.660598 186.531324zM327.660598 430.600085c-56.005548 0-101.414761-45.623084-101.414761-101.887528s45.409213-101.888552 101.414761-101.888552c56.015781 0 101.414761 45.62513 101.414761 101.888552S383.676379 430.600085 327.660598 430.600085zM716.7605 511.703241c3.25002 1.910513 6.794753 2.825348 10.299577 2.825348 6.932899 0 13.707187-3.560082 17.49035-9.983375 6.042623-10.301623 13.666254-20.944008 22.61916-31.68156 7.211239-8.613168 6.083555-21.459754-2.494821-28.699646-8.596795-7.238868-21.392216-6.084579-28.562523 2.52552-10.398838 12.431124-19.313881 24.940019-26.501584 37.132712C703.925171 493.50681 707.113793 505.97682 716.7605 511.703241zM432.332543 897.774157c-12.883425-4.63353-24.608467-10.063193-34.840506-16.089443-9.66615-5.747911-22.095227-2.426259-27.760251 7.238868-5.676279 9.705036-2.436492 22.195511 7.219425 27.883047 12.399401 7.299243 26.423813 13.782911 41.676192 19.311835 2.266623 0.795109 4.573155 1.173732 6.853082 1.173732 8.318456 0 16.111956-5.151323 19.094894-13.484106C448.357518 913.24757 442.881806 901.553227 432.332543 897.774157zM347.310124 817.783335c-0.170892-11.097756-9.19236-20.067035-20.282952-20.067035-11.202133 0-20.282952 9.128915-20.282952 20.385283 0 1.928932 0.265036 12.290931 5.613858 26.809599 3.031033 8.233522 10.783601 13.305027 19.025309 13.305027 2.337231 0 4.724605-0.417509 7.042393-1.292436 10.506285-3.897773 15.864316-15.592117 11.981892-26.173103C347.666234 823.352167 347.328543 818.261219 347.310124 817.783335zM833.981249 358.664729c-11.310603 8.153704-22.976294 17.022699-34.542724 26.470885-8.676613 7.120165-9.984399 19.948331-2.913353 28.658713 4.022617 4.951779 9.845229 7.497765 15.746636 7.497765 4.497431 0 9.032724-1.493004 12.794397-4.574179 10.894118-8.909927 21.887496-17.283642 32.564673-24.959461 9.090029-6.54302 11.192923-19.271926 4.65502-28.401864C855.769484 354.208231 843.113233 352.121709 833.981249 358.664729zM836.873112 764.125251c-10.971889 2.287089-18.024515 13.066597-15.746636 24.084535 1.367137 6.582929 2.060939 13.047154 2.060939 19.192108 0 5.012154-0.476861 10.023284-1.387603 14.81645-2.140757 11.057847 5.051039 21.738094 16.063861 23.846104 1.287319 0.278339 2.595105 0.3776 3.862981 0.3776 9.529027 0 18.024515-6.742565 19.886933-16.487509 1.426489-7.358595 2.140757-14.915711 2.140757-22.553669 0-8.909927-0.972141-18.157545-2.892887-27.465538C858.56311 768.898974 847.747787 761.897513 836.873112 764.125251zM953.540252 309.818231c-5.1503-10.023284-17.391089-13.9405-27.316136-8.789177 0 0-6.932899 3.599991-18.459421 10.18292-9.725502 5.567809-13.132088 17.998933-7.584746 27.783787 3.741207 6.582929 10.595312 10.262738 17.646915 10.262738 3.405563 0 6.853082-0.855484 10.022261-2.664689 10.41828-5.947456 16.757662-9.247618 16.956184-9.348925C954.748776 332.093561 958.671109 319.822073 953.540252 309.818231zM819.839157 696.466292c-8.576329-11.296277-18.48091-22.632463-29.432333-33.790594-7.846712-8.014534-20.679995-8.094352-28.682249-0.218988-7.983835 7.875365-8.06263 20.802792-0.198521 28.818349 9.744945 9.924024 18.540262 20.027126 26.105564 29.931706 4.002151 5.250584 10.024308 7.995091 16.126282 7.995091 4.296863 0 8.633634-1.372254 12.299117-4.196579C824.970014 718.14401 826.654376 705.375196 819.839157 696.466292zM673.04486 914.480654c-12.914124 1.849114-26.502607 3.221368-40.408315 4.116761-11.178597 0.735757-19.657712 10.42135-18.936281 21.658276 0.694825 10.779507 9.619078 19.052938 20.224624 19.052938 0.435928 0 0.883113-0.039909 1.327228-0.039909 14.936177-0.994654 29.571503-2.466168 43.497677-4.455475 11.090593-1.591241 18.797112-11.892865 17.232476-23.030529C694.39819 920.645051 684.156942 912.809595 673.04486 914.480654zM782.937712 876.81173c-9.547447 6.642281-20.756743 12.649088-33.296337 17.819854-10.360975 4.295839-15.291265 16.188704-11.034311 26.610054 3.229554 7.855922 10.797927 12.609179 18.758226 12.609179 2.576685 0 5.210675-0.497327 7.725962-1.531889 15.231913-6.304589 29.017894-13.743002 40.943504-22.016433 9.210779-6.443759 11.506055-19.132756 5.128811-28.360931C804.784276 872.715435 792.106536 870.407879 782.937712 876.81173zM327.660598 64.021106C182.034916 64.021106 63.981197 183.38875 63.981197 330.621023c0 216.622666 263.678378 425.827385 263.678378 425.827385s263.678378-209.204719 263.678378-425.827385C591.338976 183.38875 473.285257 64.021106 327.660598 64.021106zM327.619666 702.910051c-24.134677-21.618367-62.422701-58.21282-100.642165-104.233969-55.856146-67.242474-122.429377-168.33387-122.429377-268.054035 0-124.518968 100.087533-225.869261 223.112474-225.869261s223.112474 101.350293 223.112474 225.869261C550.773072 487.260549 390.707516 646.307915 327.619666 702.910051zM737.022986 604.741217c-5.803169-10.42135-9.348925-21.240767-10.516518-32.199353-1.190105-11.177574-10.954493-19.25146-22.324448-18.058284-11.151991 1.193175-19.213597 11.216459-18.005073 22.414499 1.763157 16.447601 6.953366 32.517601 15.46932 47.75156 3.704368 6.662747 10.595312 10.42135 17.708314 10.42135 3.348258 0 6.752798-0.835018 9.884115-2.605338C739.025597 626.976638 742.509954 614.56598 737.022986 604.741217z" fill="#2c2c2c" p-id="1455"></path></svg>